<mxfile host="app.diagrams.net" modified="2023-05-07T01:16:35.449Z" agent="Mozilla/5.0 (Windows NT 10.0; Win64; x64) AppleWebKit/537.36 (KHTML, like Gecko) Chrome/111.0.0.0 Safari/537.36 Edg/111.0.1661.44" etag="0wDfYlTlYaHTGIejipJh" version="21.2.9" type="github">
  <diagram name="第 1 页" id="EaXCSPh4J-7xRSbRL5-Y">
    <mxGraphModel dx="1505" dy="829" grid="1" gridSize="10" guides="1" tooltips="1" connect="1" arrows="1" fold="1" page="1" pageScale="1" pageWidth="827" pageHeight="1169" math="0" shadow="0">
      <root>
        <mxCell id="0" />
        <mxCell id="1" parent="0" />
        <mxCell id="zraVMbd_DWUTViFeBLR9-16" value="" style="rounded=1;whiteSpace=wrap;html=1;strokeWidth=1;fillStyle=solid;gradientColor=none;fillColor=#CCCCCC;fontSize=16;" vertex="1" parent="1">
          <mxGeometry x="105" y="454" width="555" height="110" as="geometry" />
        </mxCell>
        <mxCell id="zraVMbd_DWUTViFeBLR9-5" value="" style="edgeStyle=orthogonalEdgeStyle;rounded=0;orthogonalLoop=1;jettySize=auto;html=1;fontSize=16;" edge="1" parent="1" source="zraVMbd_DWUTViFeBLR9-2" target="zraVMbd_DWUTViFeBLR9-3">
          <mxGeometry relative="1" as="geometry" />
        </mxCell>
        <mxCell id="zraVMbd_DWUTViFeBLR9-2" value="Requirement doouments" style="shape=tape;whiteSpace=wrap;html=1;strokeWidth=1;size=0.19;fontSize=16;" vertex="1" parent="1">
          <mxGeometry x="320" y="159" width="130" height="80" as="geometry" />
        </mxCell>
        <mxCell id="zraVMbd_DWUTViFeBLR9-6" value="" style="edgeStyle=orthogonalEdgeStyle;rounded=0;orthogonalLoop=1;jettySize=auto;html=1;fontSize=16;" edge="1" parent="1" source="zraVMbd_DWUTViFeBLR9-3" target="zraVMbd_DWUTViFeBLR9-4">
          <mxGeometry relative="1" as="geometry" />
        </mxCell>
        <mxCell id="zraVMbd_DWUTViFeBLR9-3" value="Pre-processing&amp;nbsp;" style="rounded=1;whiteSpace=wrap;html=1;fontSize=16;" vertex="1" parent="1">
          <mxGeometry x="325" y="274" width="120" height="60" as="geometry" />
        </mxCell>
        <mxCell id="zraVMbd_DWUTViFeBLR9-8" value="" style="rounded=0;orthogonalLoop=1;jettySize=auto;html=1;fontSize=16;" edge="1" parent="1" source="zraVMbd_DWUTViFeBLR9-4" target="zraVMbd_DWUTViFeBLR9-7">
          <mxGeometry relative="1" as="geometry" />
        </mxCell>
        <mxCell id="zraVMbd_DWUTViFeBLR9-12" style="rounded=0;orthogonalLoop=1;jettySize=auto;html=1;exitX=0.75;exitY=1;exitDx=0;exitDy=0;entryX=0.5;entryY=0;entryDx=0;entryDy=0;fontSize=16;" edge="1" parent="1" source="zraVMbd_DWUTViFeBLR9-4" target="zraVMbd_DWUTViFeBLR9-11">
          <mxGeometry relative="1" as="geometry" />
        </mxCell>
        <mxCell id="zraVMbd_DWUTViFeBLR9-14" value="" style="edgeStyle=orthogonalEdgeStyle;rounded=0;orthogonalLoop=1;jettySize=auto;html=1;entryX=0.5;entryY=0;entryDx=0;entryDy=0;fontSize=16;" edge="1" parent="1" source="zraVMbd_DWUTViFeBLR9-4" target="zraVMbd_DWUTViFeBLR9-24">
          <mxGeometry relative="1" as="geometry">
            <mxPoint x="385" y="521" as="targetPoint" />
          </mxGeometry>
        </mxCell>
        <mxCell id="zraVMbd_DWUTViFeBLR9-4" value="Key phrase extraction" style="rounded=1;whiteSpace=wrap;html=1;fontSize=16;" vertex="1" parent="1">
          <mxGeometry x="325" y="369" width="120" height="60" as="geometry" />
        </mxCell>
        <mxCell id="zraVMbd_DWUTViFeBLR9-18" value="" style="edgeStyle=orthogonalEdgeStyle;rounded=0;orthogonalLoop=1;jettySize=auto;html=1;fontSize=16;" edge="1" parent="1" source="zraVMbd_DWUTViFeBLR9-16" target="zraVMbd_DWUTViFeBLR9-17">
          <mxGeometry relative="1" as="geometry" />
        </mxCell>
        <mxCell id="zraVMbd_DWUTViFeBLR9-7" value="Domain" style="whiteSpace=wrap;html=1;rounded=1;fontSize=16;" vertex="1" parent="1">
          <mxGeometry x="160" y="481" width="120" height="60" as="geometry" />
        </mxCell>
        <mxCell id="zraVMbd_DWUTViFeBLR9-11" value="Property" style="whiteSpace=wrap;html=1;rounded=1;fontSize=16;" vertex="1" parent="1">
          <mxGeometry x="480" y="481" width="120" height="60" as="geometry" />
        </mxCell>
        <mxCell id="zraVMbd_DWUTViFeBLR9-26" value="" style="edgeStyle=orthogonalEdgeStyle;rounded=0;orthogonalLoop=1;jettySize=auto;html=1;fontSize=16;" edge="1" parent="1" source="zraVMbd_DWUTViFeBLR9-17" target="zraVMbd_DWUTViFeBLR9-25">
          <mxGeometry relative="1" as="geometry" />
        </mxCell>
        <mxCell id="zraVMbd_DWUTViFeBLR9-17" value="Problem Diagram Module" style="whiteSpace=wrap;html=1;rounded=1;strokeWidth=1;fillStyle=solid;gradientColor=none;fontSize=16;" vertex="1" parent="1">
          <mxGeometry x="323" y="603" width="120" height="60" as="geometry" />
        </mxCell>
        <mxCell id="zraVMbd_DWUTViFeBLR9-23" value="" style="edgeStyle=orthogonalEdgeStyle;rounded=0;orthogonalLoop=1;jettySize=auto;html=1;fontSize=16;" edge="1" parent="1" source="zraVMbd_DWUTViFeBLR9-22" target="zraVMbd_DWUTViFeBLR9-3">
          <mxGeometry relative="1" as="geometry" />
        </mxCell>
        <mxCell id="zraVMbd_DWUTViFeBLR9-22" value="NLP techniques" style="rounded=1;whiteSpace=wrap;html=1;fontSize=16;" vertex="1" parent="1">
          <mxGeometry x="480" y="274" width="120" height="60" as="geometry" />
        </mxCell>
        <mxCell id="zraVMbd_DWUTViFeBLR9-24" value="Phenomenon" style="rounded=1;whiteSpace=wrap;html=1;fontSize=16;" vertex="1" parent="1">
          <mxGeometry x="325" y="481" width="120" height="60" as="geometry" />
        </mxCell>
        <mxCell id="zraVMbd_DWUTViFeBLR9-25" value="Problem Diagram" style="whiteSpace=wrap;html=1;rounded=1;strokeWidth=1;fillStyle=solid;gradientColor=none;fontSize=16;" vertex="1" parent="1">
          <mxGeometry x="322.5" y="696" width="120" height="60" as="geometry" />
        </mxCell>
      </root>
    </mxGraphModel>
  </diagram>
</mxfile>
